<svg width="30" height="30" viewBox="0 0 30 30" fill="none" xmlns="http://www.w3.org/2000/svg">
<circle cx="15" cy="15" r="15" fill="#C4C4C4"/>
<circle cx="15" cy="15" r="15" fill="url(#paint0_linear_405_826)"/>
<path d="M15.0002 8.00675C12.133 8.00675 9.4103 7.7519 8.37034 10.4188C7.94078 11.5202 8.00316 12.9507 8.00316 14.999C8.00316 16.7964 7.94552 18.4857 8.37034 19.5785C9.40793 22.2469 12.1527 21.9913 14.9986 21.9913C17.7442 21.9913 20.575 22.2769 21.6276 19.5785C22.058 18.466 21.9948 17.0568 21.9948 14.999C21.9948 12.2674 22.1456 10.504 20.8198 9.18002C19.4774 7.83869 17.6621 8.00675 14.997 8.00675H15.0002ZM14.3732 9.26681C20.3539 9.25734 21.1152 8.59299 20.6951 17.8221C20.5458 21.0863 18.0585 20.7281 15.001 20.7281C9.42609 20.7281 9.2658 20.5687 9.2658 14.9959C9.2658 9.35833 9.708 9.26996 14.3732 9.26523V9.26681ZM18.7352 10.4275C18.2717 10.4275 17.8958 10.803 17.8958 11.2662C17.8958 11.7293 18.2717 12.1049 18.7352 12.1049C19.1987 12.1049 19.5746 11.7293 19.5746 11.2662C19.5746 10.803 19.1987 10.4275 18.7352 10.4275ZM15.0002 11.4082C13.0158 11.4082 11.4073 13.0162 11.4073 14.999C11.4073 16.9818 13.0158 18.589 15.0002 18.589C16.9845 18.589 18.5923 16.9818 18.5923 14.999C18.5923 13.0162 16.9845 11.4082 15.0002 11.4082ZM15.0002 12.6683C18.0837 12.6683 18.0877 17.3298 15.0002 17.3298C11.9174 17.3298 11.9127 12.6683 15.0002 12.6683Z" fill="white"/>
<defs>
<linearGradient id="paint0_linear_405_826" x1="2.01425" y1="28.0455" x2="29.8113" y2="3.98276" gradientUnits="userSpaceOnUse">
<stop stop-color="#FFDD55"/>
<stop offset="0.5" stop-color="#FF543E"/>
<stop offset="1" stop-color="#C837AB"/>
</linearGradient>
</defs>
</svg>
