<svg width="30" height="30" viewBox="0 0 30 30" fill="none" xmlns="http://www.w3.org/2000/svg">
<circle cx="15" cy="15" r="14.5" stroke="#3E260C"/>
<path d="M15.0002 6.50819C11.5186 6.50819 8.21251 6.19873 6.9497 9.43708C6.42809 10.7746 6.50384 12.5116 6.50384 14.9988C6.50384 17.1813 6.43384 19.2326 6.9497 20.5596C8.20963 23.7998 11.5426 23.4894 14.9983 23.4894C18.3322 23.4894 21.7697 23.8362 23.0478 20.5596C23.5704 19.2087 23.4937 17.4975 23.4937 14.9988C23.4937 11.6819 23.6768 9.54055 22.0669 7.93288C20.4369 6.30412 18.2325 6.50819 14.9964 6.50819H15.0002ZM14.2389 8.03827C21.5012 8.02677 22.4255 7.22006 21.9154 18.4269C21.7342 22.3905 18.7138 21.9555 15.0012 21.9555C8.23168 21.9555 8.03704 21.762 8.03704 14.995C8.03704 8.14941 8.574 8.0421 14.2389 8.03635V8.03827ZM19.5356 9.44762C18.9727 9.44762 18.5163 9.90367 18.5163 10.4661C18.5163 11.0285 18.9727 11.4845 19.5356 11.4845C20.0984 11.4845 20.5548 11.0285 20.5548 10.4661C20.5548 9.90367 20.0984 9.44762 19.5356 9.44762ZM15.0002 10.6385C12.5906 10.6385 10.6374 12.5911 10.6374 14.9988C10.6374 17.4065 12.5906 19.3581 15.0002 19.3581C17.4098 19.3581 19.362 17.4065 19.362 14.9988C19.362 12.5911 17.4098 10.6385 15.0002 10.6385ZM15.0002 12.1686C18.7445 12.1686 18.7493 17.829 15.0002 17.829C11.2569 17.829 11.2511 12.1686 15.0002 12.1686Z" fill="#3E260C"/>
</svg>
