<svg width="100" height="60" viewBox="0 0 100 60" fill="none" xmlns="http://www.w3.org/2000/svg">
<path d="M69 59C80.598 59 90 49.598 90 38C90 26.402 80.598 17 69 17C57.402 17 48 26.402 48 38C48 49.598 57.402 59 69 59Z" fill="#CD3367"/>
<path d="M13.7178 1.30455C13.5215 0.871917 13.3251 0.266238 13.3251 0.0499232C13.3251 -0.209653 15.1315 0.56908 17.3699 1.78044C24.7918 5.93368 44.1518 17.3983 45.4476 18.4799C47.3719 20.0805 47.6075 21.1622 46.9007 25.1857C45.9742 30.5442 46.3001 38.4115 47.5051 41.1426C47.5464 41.2362 47.5999 41.3199 47.6645 41.3993C48.7382 42.7193 51.3392 45.3441 53.9318 46.1838C61.3432 47.7106 77.7121 50.364 84.5549 48.9149C84.7185 48.8804 84.8829 48.8759 85.0472 48.8448C85.3149 48.7943 85.7091 48.6498 86.2489 48.4178C88.3694 47.5525 91.3932 47.8554 93.1603 49.1532C94.0243 49.8022 95.9092 50.8405 97.3229 51.4461C98.6973 52.0951 99.9148 52.8305 99.9932 53.0901C100.307 54.0419 89.6653 54.4745 85.1886 53.6958L83.319 53.3587C83.1276 53.3243 82.9372 53.3284 82.7479 53.3728C75.8097 54.9987 60.3679 57.6885 51.8349 55.9274C50.5457 55.7312 48.7147 56.2158 44.9371 57.3731C38.1436 59.4065 32.4887 60.2718 28.2476 59.9257C24.5562 59.6228 23.3389 59.32 15.7598 56.7242C10.8904 55.0802 10.1835 54.9505 5.86388 54.9505C3.31135 54.9505 0.955167 54.8206 0.601741 54.6909C-0.262191 54.3448 -0.183653 53.5228 0.758819 52.8738C1.19079 52.6143 1.4264 52.0951 1.30859 51.749C1.07298 51.1 0.994438 51.1 6.84562 49.9752C13.6785 48.5908 18.2339 47.466 19.2941 46.9036C21.3754 45.7354 21.611 44.1348 20.3151 39.8084C19.6868 37.5588 19.4512 35.3957 19.2549 29.209C18.98 21.5948 18.9407 21.3785 17.7625 18.826C17.0164 17.2253 14.9744 14.4132 12.3826 11.3848C7.98444 6.32304 7.63101 5.37125 9.83012 4.89536C10.6548 4.72231 10.9297 4.41947 10.8511 3.77053C10.7726 3.03505 11.0867 2.81874 12.4612 2.47264C13.9142 2.1698 14.0712 2.04002 13.7178 1.30455Z" fill="white"/>
</svg>
